<svg width="24" height="23" viewBox="0 0 24 23" fill="none" xmlns="http://www.w3.org/2000/svg">
<path d="M10.9332 19.6965L10.9317 19.6952C7.82162 16.875 5.32134 14.6053 3.58655 12.4844C1.86324 10.3775 1 8.53952 1 6.6C1 3.45628 3.45628 1 6.6 1C8.38521 1 10.1142 1.83594 11.2386 3.15634L12 4.0504L12.7614 3.15634C13.8858 1.83594 15.6148 1 17.4 1C20.5437 1 23 3.45628 23 6.6C23 8.53953 22.1368 10.3775 20.4132 12.4861C18.6784 14.6086 16.1784 16.8809 13.0686 19.7069C13.0682 19.7073 13.0678 19.7076 13.0675 19.7079L12.0026 20.67L10.9332 19.6965Z" stroke="#A3A3A3" stroke-width="2"/>
</svg>
